<svg width="70" height="70" viewBox="0 0 70 70" fill="none" xmlns="http://www.w3.org/2000/svg">
<path fill-rule="evenodd" clip-rule="evenodd" d="M19.4727 13.1791C19.4727 12.078 20.3627 11.184 21.4637 11.1791L59.3581 11.0099C60.4662 11.005 61.367 11.9019 61.367 13.0099V40.4307C61.367 41.5318 60.477 42.4257 59.376 42.4307L21.4816 42.5998C20.3735 42.6048 19.4727 41.7079 19.4727 40.5998V13.1791Z" fill="white"/>
<path d="M51.5127 19.0449C52.6173 19.0449 53.5127 19.9404 53.5127 21.0449V48.4658C53.5126 49.5703 52.6172 50.4658 51.5127 50.4658H32.2744L22.9268 58.8799C22.605 59.1695 22.0918 58.9407 22.0918 58.5078V50.4658H11C9.89547 50.4658 9.00007 49.5703 9 48.4658V21.0449C9 19.9404 9.89543 19.0449 11 19.0449H51.5127Z" fill="#FABE00"/>
<rect x="14.9844" y="26.9004" width="26.9321" height="4.48868" rx="0.857143" fill="white"/>
<rect x="14.9844" y="37.374" width="17.9547" height="4.48868" rx="0.857143" fill="white"/>
</svg>
